<mxfile host="65bd71144e">
    <diagram id="ObrhxxN0tMPch6RFERC4" name="Page-1">
        <mxGraphModel dx="649" dy="534" grid="1" gridSize="10" guides="1" tooltips="1" connect="1" arrows="1" fold="1" page="1" pageScale="1" pageWidth="850" pageHeight="1100" math="0" shadow="0">
            <root>
                <mxCell id="0"/>
                <mxCell id="1" parent="0"/>
                <mxCell id="4" value="&lt;font color=&quot;#000000&quot;&gt;size= large&lt;br&gt;toppings = 3&lt;br&gt;(6 + 2.5)*0.13 = 9.6&lt;br&gt;cost = 9.6&lt;br&gt;&lt;/font&gt;" style="rounded=1;whiteSpace=wrap;html=1;absoluteArcSize=1;arcSize=14;strokeWidth=2;" vertex="1" parent="1">
                    <mxGeometry x="339" y="240" width="150" height="100" as="geometry"/>
                </mxCell>
                <mxCell id="5" value="&lt;font color=&quot;#000000&quot;&gt;size= Extra large&lt;br&gt;toppings = 1&lt;br&gt;(10 + 1)*0.13 = 12.43&lt;br&gt;cost = 12.43&lt;br&gt;&lt;/font&gt;" style="rounded=1;whiteSpace=wrap;html=1;absoluteArcSize=1;arcSize=14;strokeWidth=2;" vertex="1" parent="1">
                    <mxGeometry x="339" y="370" width="150" height="100" as="geometry"/>
                </mxCell>
                <mxCell id="6" value="&lt;font color=&quot;#000000&quot;&gt;size= Extra large&lt;br&gt;roppings = 4&lt;br&gt;(6 + 2.5)*0.13 = 15.09&lt;br&gt;cost = 15.09&lt;br&gt;&lt;/font&gt;" style="rounded=1;whiteSpace=wrap;html=1;absoluteArcSize=1;arcSize=14;strokeWidth=2;" vertex="1" parent="1">
                    <mxGeometry x="339" y="500" width="150" height="100" as="geometry"/>
                </mxCell>
            </root>
        </mxGraphModel>
    </diagram>
</mxfile>